<svg xmlns="http://www.w3.org/2000/svg" viewBox="0 0 512 512">
  <defs>
    <linearGradient id="bg" x1="0%" y1="0%" x2="100%" y2="100%">
      <stop offset="0%" style="stop-color:#C49A4C"/>
      <stop offset="100%" style="stop-color:#819647"/>
    </linearGradient>
  </defs>
  <rect width="512" height="512" rx="108" fill="url(#bg)"/>
  <g transform="translate(256,280)" fill="none" stroke="white" stroke-width="18" stroke-linecap="round" stroke-linejoin="round">
    <!-- Trunk -->
    <path d="M0,60 C5,20 -5,-20 0,-60" stroke-width="22"/>
    <!-- Fronds -->
    <path d="M0,-60 C-20,-100 -70,-120 -100,-110"/>
    <path d="M0,-60 C20,-100 70,-120 100,-110"/>
    <path d="M0,-60 C-30,-90 -80,-90 -95,-75"/>
    <path d="M0,-60 C30,-90 80,-90 95,-75"/>
    <path d="M0,-60 C-15,-110 -50,-140 -75,-140"/>
    <path d="M0,-60 C15,-110 50,-140 75,-140"/>
  </g>
</svg>
